<svg width="31" height="31" fill="none" xmlns="http://www.w3.org/2000/svg"><path d="M15.5 19.633a4.133 4.133 0 100-8.267 4.133 4.133 0 000 8.267z" fill="#000" fill-opacity=".5"/><path d="M11.624 2.583L9.26 5.166H5.165A2.59 2.59 0 002.582 7.75v15.5a2.59 2.59 0 002.583 2.583h20.667a2.59 2.59 0 002.583-2.583V7.75a2.59 2.59 0 00-2.583-2.584h-4.095l-2.363-2.583h-7.75zm3.875 19.375A6.46 6.46 0 019.04 15.5a6.46 6.46 0 016.46-6.46 6.46 6.46 0 016.458 6.459 6.46 6.46 0 01-6.458 6.458z" fill="#000" fill-opacity=".5"/></svg>