<svg width="22" height="22" fill="none" xmlns="http://www.w3.org/2000/svg"><path d="M20.057 1.97l-1.1.367a12.687 12.687 0 01-5.876.587 10.88 10.88 0 00-6.123.825 6.627 6.627 0 00-3.933 4.96 7.93 7.93 0 001.348 6.05c-.055.192-.11.384-.156.577a20.716 20.716 0 00-.55 4.83H5.5c.086-1.33.267-2.654.54-3.96a8.478 8.478 0 004.144 1.018c1.348 0 2.682-.272 3.924-.797 6.975-2.98 6.059-12.889 6.059-13.301l-.11-1.155zm-6.664 12.77c-2.393 1.017-5.253.843-6.857-.413a12.58 12.58 0 011.11-2.603 9.324 9.324 0 011.273-1.64 8.25 8.25 0 011.66-1.302 11 11 0 014.088-1.449v-.916a10.477 10.477 0 00-4.822.99 9.423 9.423 0 00-3.777 3.345 13.95 13.95 0 00-.916 1.714 6.416 6.416 0 01-.349-3.419 4.803 4.803 0 012.879-3.666 8.186 8.186 0 013.501-.77c.569 0 1.128.055 1.715.1a14.85 14.85 0 005.5-.32c-.065 2.53-.523 8.442-5.005 10.349z" fill="#000" fill-opacity=".5"/></svg>