<svg width="167" height="35" fill="none" xmlns="http://www.w3.org/2000/svg"><path d="M35.533 32.6l-1.253 1.837h-.554v-3.383h.741v1.837l1.254-1.837h.559v3.383h-.747V32.6zm7.523-.802h-.837v2.64h-.742v-2.64h-.837v-.744h2.416v.744zm6.03 2.105h-1.208l-.163.528h-.812l1.107-3.383h.944l1.106 3.383h-.822l-.152-.528zm-.224-.723l-.38-1.245-.381 1.245h.761zm5.326.529c.335.052.538-.053.538-.618v-2.037h2.248v3.383h-.74v-2.639h-.762v1.267c0 1.203-.685 1.44-1.284 1.372v-.728zm9.772-.449a1.2 1.2 0 01-.335.829 1.113 1.113 0 01-.37.25 1.079 1.079 0 01-.433.082h-1.228v-3.367h.74v1.055h.508c.295 0 .577.121.787.337.209.215.328.508.33.814zm-.742 0a.429.429 0 00-.109-.305.395.395 0 00-.287-.128h-.508v.866h.508a.39.39 0 00.271-.137.422.422 0 00.1-.296h.025zm7.375 1.176h-.741v-1.114h-.239l-.69 1.114h-.838l.767-1.209a1.091 1.091 0 01-.483-.407 1.156 1.156 0 01-.104-1.06c.056-.142.137-.27.24-.378a1.075 1.075 0 01.788-.34h1.3v3.394zm-.741-1.79v-.87h-.559a.416.416 0 00-.267.143.448.448 0 000 .585c.07.08.164.13.267.143h.559zm7.846-1.592v3.383h-.746v-1.346h-1.015v1.346h-.746v-3.383h.746v1.293h1.015v-1.293h.746zm4.453 1.678a1.775 1.775 0 01.118-.68c.083-.215.207-.412.365-.576.158-.164.347-.294.554-.38.208-.086.43-.128.654-.122.276-.004.55.066.793.203s.449.336.597.578l-.64.391a.851.851 0 00-.32-.315.811.811 0 00-.43-.102.946.946 0 00-.682.294 1.023 1.023 0 00-.283.709c0 .266.102.52.283.709.18.188.426.294.682.294a.807.807 0 00.43-.099.847.847 0 00.32-.313l.64.385a1.627 1.627 0 01-.595.585 1.55 1.55 0 01-.795.202 1.594 1.594 0 01-.655-.123 1.646 1.646 0 01-.555-.38 1.722 1.722 0 01-.365-.58 1.775 1.775 0 01-.116-.68zm9.248 1.705l-1.04-1.583v1.583h-.742v-3.383h.736v1.467l1.015-1.467h.843L91.12 32.7l1.142 1.737h-.863zm6.969-1.837l-1.254 1.837h-.553v-3.383h.741v1.837l1.254-1.837h.558v3.383h-.746V32.6zm7.148 0l-1.254 1.836h-.554v-3.383h.742v1.836l1.253-1.836h.559v3.383h-.746V32.6zm-1.229-2.55h1.396v.623h-1.396v-.623zm14.309 2.154a1.182 1.182 0 01-.336.826 1.083 1.083 0 01-.801.33h-.507v1.056h-.711v-3.362h1.228c.147-.002.292.027.428.084.136.057.26.141.365.248a1.182 1.182 0 01.334.818zm-.741 0a.42.42 0 00-.239-.402.392.392 0 00-.157-.036h-.507v.871h.507a.388.388 0 00.288-.128.42.42 0 00.108-.305zm7.192 1.489v.744h-2.03v-3.383h2.03v.744h-1.284v.56h1.168v.733h-1.168v.602h1.284zm4.289-.961a1.774 1.774 0 01.118-.68c.083-.217.208-.413.367-.578.158-.164.347-.293.556-.38a1.59 1.59 0 01.654-.12c.277-.003.55.066.793.203.244.137.45.336.598.579l-.639.39a.854.854 0 00-.321-.315.813.813 0 00-.431-.102.944.944 0 00-.681.294 1.024 1.024 0 00-.283.709c0 .266.102.521.283.71.18.187.426.293.681.293a.812.812 0 00.43-.1.856.856 0 00.322-.312l.639.386a1.636 1.636 0 01-.596.582 1.566 1.566 0 01-.795.204 1.594 1.594 0 01-.656-.12 1.642 1.642 0 01-.556-.382 1.72 1.72 0 01-.367-.579 1.781 1.781 0 01-.116-.682zm9.655-.934h-.837v2.64h-.741v-2.64h-.838v-.744h2.416v.744zm4.03.934c0-.35.099-.69.286-.98a1.71 1.71 0 01.762-.65 1.64 1.64 0 01.98-.099c.329.069.631.237.868.484s.398.562.463.904c.064.342.03.697-.099 1.019a1.746 1.746 0 01-.627.79 1.646 1.646 0 01-.943.295 1.628 1.628 0 01-.65-.132 1.671 1.671 0 01-.55-.382 1.756 1.756 0 01-.366-.573 1.811 1.811 0 01-.124-.676zm2.639 0a1.015 1.015 0 00-.167-.544.954.954 0 00-.429-.357.915.915 0 00-.547-.05.939.939 0 00-.482.274 1.02 1.02 0 00-.199 1.074c.072.18.194.333.349.44a.925.925 0 00.526.166.912.912 0 00.698-.278.96.96 0 00.21-.333c.046-.125.067-.259.062-.392h-.021zm7.564-.528a1.166 1.166 0 01-.336.825 1.112 1.112 0 01-.369.249 1.075 1.075 0 01-.432.081h-.508v1.056h-.72v-3.362h1.228a1.08 1.08 0 01.799.329 1.195 1.195 0 01.338.822zm-.741 0a.439.439 0 00-.108-.307.407.407 0 00-.288-.131h-.508v.87h.508a.379.379 0 00.287-.128.422.422 0 00.109-.304zm6.731 1.699h-1.208l-.163.528h-.812l1.107-3.383h.944l1.106 3.383h-.802l-.172-.528zm-.224-.723l-.38-1.245-.381 1.245h.761zm8.01-2.126v3.383h-.746v-1.346h-1.015v1.346h-.741v-3.383h.741v1.293h1.015v-1.293H167z" fill="#000"/><path d="M9.012 31.676c1.152-.86 1.06-2.027.878-3.267-.147-.992-.046-1.88-.224-2.597-.177-.718-.664-1.388-.791-2.18-.239-1.515-.25-3.362-.564-5.094-.106-.596-.507-.78-.63-1.499-.065-.448-.507-3.695-.684-4.112-.092-.184-.03-.76-.229-.728-.198.032-.254 2.93-.269 3.135-.046.491-.568.903-.63 1.373-.334 2.544-.461 2.206-.04 5.183.122.845.569 5.278.645 5.875a5.835 5.835 0 01-.067 2.21 5.724 5.724 0 01-.882 2.012c0 .296.41 1.616.456 2.423H7.83c-.157-1.314.152-1.963 1.183-2.734zm-3.427-3.573a27.624 27.624 0 00-.294-3.695 15.553 15.553 0 00-.259-2.856c-.237-2.463-.49-4.939-.761-7.426a78.472 78.472 0 00-.508-3.78 2.46 2.46 0 000-1.963c-.35-.892.188-1.816-.193-2.681 0-.043-.07-1.394-.193-1.98-.08-.46-.33-.865-.396-1.309-.147-.755-.218-1.53-.345-2.296a.134.134 0 00-.048-.089.124.124 0 00-.18.023.137.137 0 00-.025.098 3.44 3.44 0 010 .396c0 .264-.163.527-.193.786-.076.58-.107 1.172-.158 1.758a.323.323 0 01-.091.221c-.254.212-.198.45-.163.745.112.945.285 1.884 0 2.85a5.377 5.377 0 000 1.515c.013.253-.006.507-.055.755-.569 2.111-1.254 4.159-.975 6.392a2.16 2.16 0 01-.035.675c-.36 1.848 0 3.695-.03 5.553-.118.58-.437 2.924-.473 3.547 0 .18-.04.364-.066.528v.132c-.088.466-.136.94-.142 1.415-.066 1.583 1.599 4.972 1.63 5.02.243.408.39.871.426 1.35.022.213.022.427 0 .64h1.604a2.803 2.803 0 01.248-1.695c.046-.095 1.549-2.803 1.675-4.63zM22.844 14.33a8.833 8.833 0 001.081-4.283 8.83 8.83 0 00-1.12-4.273 8.406 8.406 0 00-3.022-3.12 7.995 7.995 0 00-4.117-1.134c-1.549-.04-3.088.27-4.511.907a10.743 10.743 0 00-3.732 2.788 14.355 14.355 0 00-2.812 5.463c.162 1.056.32 2.201.441 3.341.072.665.148 1.394.229 2.17.085-.2.187-.39.304-.57a1.68 1.68 0 00.198-.349v-.338c0-.417.041-1.113.082-1.71.025-.348.05-.612.08-.813.031-.2.133-.876.717-.976h.142c.194 0 .382.07.533.197a.898.898 0 01.3.5c.04.142.177.812.233 1.055a11.296 11.296 0 012.33-5.373 6.97 6.97 0 012.462-1.822 6.725 6.725 0 012.974-.564 4.39 4.39 0 013.166 1.364 4.751 4.751 0 011.31 3.291 4.616 4.616 0 01-1.131 3.078c-.061.079-2.843 3.5-3.843 4.75a.327.327 0 00-.057.41c.04.064.1.111.17.133.07.022.146.016.212-.015a14.53 14.53 0 014.7-.607c.725.02 1.44.168 2.117.438.322.125.633.279.93.46l-.067-.032a6.266 6.266 0 012.562 3.045c.51 1.28.604 2.697.266 4.037a6.357 6.357 0 01-2.138 3.38 5.946 5.946 0 01-3.67 1.345h-7.152c.038-.523.116-1.042.234-1.552.086-.39.467-.712.726-1.055a3.37 3.37 0 00.68-2.111c0-.106 0-.212-.04-.317-.041-.106 0-.153-.026-.227v-.032c-.406-3.457-.868-6.914-1.33-10.367a2.994 2.994 0 00-.279-.77.303.303 0 00-.097-.12.276.276 0 00-.323-.005.295.295 0 00-.113.157 9.754 9.754 0 00-.426 1.583c-.412 3.109-.508 3.605-.777 6.429-.14 1.248-.124 2.51.046 3.753.025.61.006 1.22-.056 1.826-.259.77-.026 1.056.868 1.404v1.41h-1.386a3.112 3.112 0 01-1.208 1.81c-.832.623-1.015 1.003-.883 2.027v.08h11.781c.078.005.156.005.234 0 2.329-.122 4.54-1.1 6.24-2.76 1.7-1.66 2.778-3.893 3.042-6.302a10.548 10.548 0 00-1.604-6.852c-1.298-2.014-3.242-3.483-5.486-4.145l.016-.037z" fill="#C1D8D9"/><path d="M79.45 13.93l-5.477 14.252h2.919l.822-2.185h6.208l.848 2.174h2.918L82.211 13.92l-2.76.01zm-.69 9.343l2.132-5.542 2.076 5.542H78.76zm26.13-9.338l-5.482 14.252h1.457l1.37-3.558h7.203l1.33 3.558h1.584l-5.472-14.252h-1.99zm-2.132 9.338l3.127-8.14 3.045 8.14h-6.172zm56.78-9.338l-5.477 14.252h1.457l1.37-3.558h7.198l1.335 3.558H167l-5.472-14.252h-1.99zm-2.132 9.338l3.132-8.14 3.045 8.14h-6.177zm-86.905-.418l-8.583-8.925h-.914v14.24h2.741v-8.83l8.492 8.83h1V13.93h-2.736v8.925zm-17.435-8.957c-1.36 0-2.69.42-3.822 1.206a7.1 7.1 0 00-2.533 3.21 7.418 7.418 0 00-.39 4.134 7.244 7.244 0 001.884 3.662 6.8 6.8 0 003.522 1.956 6.634 6.634 0 003.975-.41 6.944 6.944 0 003.085-2.636 7.357 7.357 0 001.157-3.975 7.299 7.299 0 00-2.016-5.054 6.746 6.746 0 00-4.862-2.093zm0 11.613a4.192 4.192 0 01-2.4-.749 4.447 4.447 0 01-1.594-2.01 4.648 4.648 0 01-.248-2.593 4.54 4.54 0 011.18-2.298 4.26 4.26 0 012.21-1.227 4.157 4.157 0 012.493.258 4.351 4.351 0 011.933 1.658 4.61 4.61 0 01.72 2.495 4.574 4.574 0 01-1.257 3.163 4.227 4.227 0 01-3.037 1.319v-.016zm79.419-11.613c-1.36 0-2.69.42-3.822 1.206a7.104 7.104 0 00-2.533 3.21 7.42 7.42 0 00-.39 4.134 7.248 7.248 0 001.883 3.662 6.81 6.81 0 003.523 1.956 6.636 6.636 0 003.975-.41 6.945 6.945 0 003.085-2.636 7.359 7.359 0 001.157-3.975 7.39 7.39 0 00-.524-2.736 7.155 7.155 0 00-1.491-2.32 6.868 6.868 0 00-2.231-1.548 6.649 6.649 0 00-2.632-.543zm0 12.916a5.397 5.397 0 01-3.082-.972 5.725 5.725 0 01-2.044-2.589 5.982 5.982 0 01-.315-3.333 5.842 5.842 0 011.518-2.954 5.488 5.488 0 012.841-1.58 5.35 5.35 0 013.205.33 5.602 5.602 0 012.49 2.124 5.93 5.93 0 01.935 3.205 5.95 5.95 0 01-.421 2.209 5.778 5.778 0 01-1.202 1.872 5.547 5.547 0 01-1.801 1.25 5.358 5.358 0 01-2.124.438zm-88.632-6.223a4.322 4.322 0 00.344-4.384 4.12 4.12 0 00-1.498-1.673 3.904 3.904 0 00-2.12-.604h-6.853v14.25h7.69a3.918 3.918 0 002.41-.759 4.176 4.176 0 001.505-2.1 4.35 4.35 0 00.01-2.619 4.18 4.18 0 00-1.488-2.112zm-7.345-3.832h3.97c.367.008.716.167.971.443.255.275.394.645.386 1.027-.007.382-.16.746-.425 1.01-.266.265-.621.41-.988.402h-3.914v-2.882zm4.756 8.942h-4.756v-3.484h4.644a1.64 1.64 0 011.201.469c.325.316.515.753.53 1.215.015.462-.147.91-.45 1.248a1.649 1.649 0 01-1.169.552zm56.409-9.016l.802-1.282a6.734 6.734 0 00-3.515-1.47 6.65 6.65 0 00-3.73.69 6.98 6.98 0 00-2.813 2.638 7.365 7.365 0 00-1.043 3.787c0 1.339.362 2.65 1.043 3.787a6.98 6.98 0 002.813 2.638 6.648 6.648 0 003.73.689 6.734 6.734 0 003.515-1.47l-.817-1.282a5.355 5.355 0 01-2.795 1.266 5.27 5.27 0 01-3.011-.491 5.53 5.53 0 01-2.289-2.094 5.84 5.84 0 01-.851-3.043 5.84 5.84 0 01.851-3.044 5.53 5.53 0 012.289-2.094 5.271 5.271 0 013.011-.49 5.356 5.356 0 012.795 1.265h.015zm21.613-2.75h-5.66v14.236h1.483v-3.568h4.172a5.026 5.026 0 003.622-1.56 5.438 5.438 0 001.5-3.766 5.44 5.44 0 00-1.5-3.766 5.026 5.026 0 00-3.622-1.56l.005-.016zm0 9.296h-4.167v-7.918h4.167a3.777 3.777 0 012.448 1.293 4.07 4.07 0 01.986 2.666c0 .985-.351 1.934-.986 2.665a3.777 3.777 0 01-2.448 1.294zm32.004 1.805l-10.552-11.1h-.026V28.17h1.487V17.187l10.574 10.995h.01V13.936h-1.493v11.1z" fill="#000"/></svg>