<svg width="23" height="23" fill="none" xmlns="http://www.w3.org/2000/svg"><circle cx="11.5" cy="11.5" r="11.5" fill="#000"/><path d="M6.2 13.193l-.137.2h-.06v-.37h.08v.202l.138-.202h.061v.37H6.2v-.2zm.824-.088h-.091v.289H6.85v-.29h-.09v-.08h.264v.08zm.66.23h-.132l-.018.058h-.089l.121-.37h.104l.121.37h-.09l-.017-.058zm-.024-.08l-.042-.135-.042.136h.084zm.583.059c.036.006.059-.006.059-.068v-.223h.246v.37h-.081v-.288h-.084v.139c0 .131-.075.157-.14.15v-.08zm1.07-.049a.132.132 0 01-.037.09.12.12 0 01-.088.037h-.134v-.369h.08v.116h.056a.12.12 0 01.086.037.13.13 0 01.037.089zm-.081 0a.047.047 0 00-.012-.033.044.044 0 00-.032-.014h-.055v.094h.055a.043.043 0 00.03-.015.046.046 0 00.01-.032h.004zm.808.128h-.082v-.122h-.026l-.076.122h-.091l.084-.132a.119.119 0 01-.053-.045.126.126 0 01.054-.185.118.118 0 01.047-.01h.142v.372zm-.082-.196v-.095h-.061a.046.046 0 00-.03.015.05.05 0 000 .064.046.046 0 00.03.016h.061zm.859-.174v.37h-.082v-.147h-.11v.148h-.082v-.37h.081v.141h.111v-.142h.082zm.488.184a.192.192 0 01.053-.137.18.18 0 01.132-.055c.03 0 .06.007.087.022a.187.187 0 01.065.063l-.07.043a.093.093 0 00-.035-.035.103.103 0 00-.122.021.112.112 0 000 .156c.02.02.047.032.075.032a.088.088 0 00.047-.01.092.092 0 00.035-.035l.07.042a.179.179 0 01-.065.064.17.17 0 01-.087.022.174.174 0 01-.133-.055.19.19 0 01-.052-.138zm1.012.187l-.114-.174v.174h-.08v-.37h.08v.16l.11-.16h.093l-.12.18.126.19h-.095zm.763-.201l-.137.2h-.06v-.37h.08v.202l.138-.202h.06v.37h-.08v-.2zm.783-.001l-.137.201h-.061v-.37h.081v.201l.137-.201h.062v.37h-.082v-.2zm-.135-.279h.153v.068h-.153v-.068zm1.567.237a.132.132 0 01-.037.09.121.121 0 01-.087.036h-.056v.116h-.078v-.369h.135a.118.118 0 01.086.037.127.127 0 01.037.09zm-.081 0a.048.048 0 00-.012-.034.045.045 0 00-.014-.01.04.04 0 00-.018-.005h-.055v.096h.056a.042.042 0 00.031-.014.045.045 0 00.012-.034zm.787.162v.082h-.222v-.37H16v.08h-.14v.062h.127v.08h-.127v.066H16zm.469-.105a.194.194 0 01.054-.138.18.18 0 01.285.031l-.07.043a.093.093 0 00-.036-.035.088.088 0 00-.047-.01.104.104 0 00-.074.031.112.112 0 000 .156c.02.02.046.032.074.032a.089.089 0 00.047-.01.094.094 0 00.036-.035l.07.042a.18.18 0 01-.066.064.172.172 0 01-.087.022.175.175 0 01-.132-.055.19.19 0 01-.053-.138zm1.058-.102h-.092v.289h-.081v-.29h-.092v-.08h.265v.08zm.441.102c0-.039.01-.076.031-.108a.187.187 0 01.084-.07.179.179 0 01.202.041.2.2 0 01.04.21.192.192 0 01-.069.088.18.18 0 01-.235-.024.192.192 0 01-.053-.137zm.289 0a.112.112 0 00-.019-.06.105.105 0 00-.047-.039.1.1 0 00-.112.025.11.11 0 00-.022.117c.008.02.021.037.038.048a.1.1 0 00.058.018.099.099 0 00.076-.03.105.105 0 00.03-.08h-.002zm.828-.057a.13.13 0 01-.037.09.122.122 0 01-.087.036h-.056v.116h-.079v-.368h.135a.118.118 0 01.087.036.128.128 0 01.037.09zm-.081 0c0-.007 0-.013-.003-.019a.045.045 0 00-.04-.03h-.056v.096h.056a.042.042 0 00.04-.03.046.046 0 00.003-.018zm.737.185h-.132l-.018.058h-.09l.122-.37h.104l.12.37h-.087l-.02-.058zm-.024-.08l-.042-.135-.042.136h.084zm.877-.232v.37h-.082v-.147h-.111v.148h-.081v-.37h.08v.141h.112v-.142h.082z" fill="#fff"/><path d="M3.297 13.091c.126-.094.116-.222.096-.357-.016-.11-.005-.206-.025-.285-.019-.079-.072-.152-.086-.239-.026-.165-.027-.368-.062-.557-.012-.066-.056-.086-.069-.164-.007-.05-.055-.405-.075-.45-.01-.02-.003-.084-.025-.08-.022.003-.028.32-.03.343-.004.054-.062.099-.068.15-.037.279-.05.242-.005.568.014.092.063.578.07.643a.639.639 0 01-.103.462c0 .033.045.177.05.266h.202c-.017-.144.017-.215.13-.3zm-.375-.391a3.024 3.024 0 00-.033-.405c0-.104-.009-.21-.028-.312a65.22 65.22 0 00-.083-.813 8.58 8.58 0 00-.056-.414.27.27 0 000-.215c-.038-.098.02-.199-.021-.294 0-.004-.008-.152-.021-.216-.01-.05-.036-.095-.044-.144-.016-.082-.023-.167-.037-.251a.015.015 0 00-.006-.01.014.014 0 00-.02.003.015.015 0 00-.002.01v.044c0 .029-.018.057-.021.086-.009.063-.012.128-.017.192 0 .01-.004.018-.01.024-.028.024-.022.05-.018.082.012.103.03.206 0 .312a.588.588 0 000 .166.34.34 0 01-.006.083c-.063.23-.138.455-.107.7a.237.237 0 01-.004.073c-.04.203 0 .405-.003.608-.013.064-.048.32-.052.389 0 .02-.004.04-.007.058v.014a.896.896 0 00-.016.155c-.007.173.175.544.179.55a.338.338 0 01.046.147.328.328 0 010 .07h.176a.307.307 0 01.027-.185c.005-.01.17-.307.184-.507zm1.89-1.508a.967.967 0 00-.005-.937.92.92 0 00-.33-.341.875.875 0 00-.452-.124 1.138 1.138 0 00-.902.404 1.572 1.572 0 00-.308.598c.018.116.035.241.048.366l.025.238a.419.419 0 01.034-.063.185.185 0 00.021-.038v-.037a3.323 3.323 0 01.018-.276c.003-.022.015-.096.078-.107h.016c.021 0 .042.008.058.021a.098.098 0 01.033.055c.005.016.02.09.026.116.032-.217.12-.42.255-.588a.738.738 0 01.595-.261.48.48 0 01.347.149.52.52 0 01.02.697c-.007.009-.312.383-.421.52a.036.036 0 00-.006.045c.004.007.01.012.018.014a.032.032 0 00.023-.001 1.6 1.6 0 01.515-.067.677.677 0 01.333.099l-.007-.004a.686.686 0 01.28.334.72.72 0 01.03.441.696.696 0 01-.235.37.65.65 0 01-.401.148h-.783a1.09 1.09 0 01.025-.17c.01-.043.051-.078.08-.116a.369.369 0 00.074-.23c0-.012 0-.024-.004-.035-.005-.012 0-.017-.003-.025v-.004a71.024 71.024 0 00-.146-1.135.327.327 0 00-.03-.084.034.034 0 00-.01-.013.03.03 0 00-.035 0 .032.032 0 00-.014.016c-.02.057-.036.115-.046.174-.045.34-.056.394-.085.704-.016.136-.014.274.005.41.002.067 0 .134-.006.2-.029.085-.003.116.095.154v.155h-.152a.34.34 0 01-.132.198c-.091.068-.112.11-.097.222v.008h1.315c.255-.013.498-.12.684-.302a1.155 1.155 0 00.157-1.44 1.08 1.08 0 00-.6-.454l.001-.004z" fill="#C1D8D9"/><path d="M11.009 11.149l-.6 1.56h.32l.09-.24h.68l.092.239h.32l-.6-1.56h-.302zm-.076 1.023l.234-.607.227.607h-.46zm2.862-1.024l-.6 1.56h.159l.15-.389h.789l.145.39h.173l-.599-1.56h-.217zm-.234 1.023l.342-.891.334.89h-.676zm6.216-1.023l-.6 1.56h.16l.15-.389h.788l.147.39h.172l-.599-1.56h-.218zm-.233 1.023l.343-.891.333.89h-.676zm-9.514-.045l-.94-.978h-.1v1.56h.3v-.967l.93.967h.109v-1.56h-.3v.978zm-1.91-.981a.733.733 0 00-.418.132.777.777 0 00-.278.351.812.812 0 00.164.854.726.726 0 00.82.17.76.76 0 00.339-.29.805.805 0 00-.094-.988.739.739 0 00-.533-.23zm0 1.27a.458.458 0 01-.263-.081.487.487 0 01-.174-.22.51.51 0 01.102-.536.455.455 0 01.515-.106c.086.038.16.1.212.182a.504.504 0 01-.06.62.463.463 0 01-.332.144v-.002zm8.696-1.27a.733.733 0 00-.419.132.778.778 0 00-.277.351.812.812 0 00.163.854.726.726 0 00.82.17.76.76 0 00.339-.29.806.806 0 00-.094-.989.751.751 0 00-.532-.228zm0 1.414a.591.591 0 01-.338-.107.627.627 0 01-.224-.283.655.655 0 01.132-.689.586.586 0 01.662-.137.613.613 0 01.273.233.65.65 0 01-.076.798.607.607 0 01-.43.185zm-9.705-.681a.469.469 0 00-.126-.663.427.427 0 00-.232-.066h-.75v1.56h.841a.429.429 0 00.264-.083.457.457 0 00.165-.23.476.476 0 00.001-.287.457.457 0 00-.163-.231zm-.804-.42h.435a.15.15 0 01.106.049.161.161 0 01-.004.223.149.149 0 01-.109.044h-.428v-.316zm.52.98h-.52v-.382h.509a.18.18 0 01.131.051.195.195 0 01.009.27.18.18 0 01-.128.06zm6.177-.988l.088-.14a.728.728 0 00-.793-.085.763.763 0 00-.308.288.806.806 0 000 .83.763.763 0 00.308.288.728.728 0 00.793-.085l-.09-.14a.586.586 0 01-.635.084.605.605 0 01-.25-.23.64.64 0 010-.666c.06-.1.147-.179.25-.229a.578.578 0 01.635.085h.002zm2.366-.302h-.62v1.56h.163v-.392h.457a.55.55 0 00.396-.17.595.595 0 000-.825.55.55 0 00-.396-.17v-.003zm0 1.018h-.456V11.3h.456a.413.413 0 01.268.142.445.445 0 010 .583.413.413 0 01-.268.142zm3.505.198l-1.156-1.216h-.003v1.56h.163v-1.204l1.158 1.204v-1.56h-.162v1.216z" fill="#fff"/></svg>