<svg width="22" height="22" fill="none" xmlns="http://www.w3.org/2000/svg"><path d="M3.985 8.362a.55.55 0 00-1.017.29v4.732a.55.55 0 001.1 0v-2.479c0-.093.12-.127.17-.048l1.745 2.816a.55.55 0 001.018-.29v-4.73a.55.55 0 00-1.1 0v2.478c0 .093-.12.127-.17.049L3.986 8.362zM8.63 8.13a.55.55 0 00-.55.55v4.698c0 .305.247.55.55.55h2.665a.55.55 0 000-1.1H9.274a.092.092 0 01-.092-.091v-.976c0-.05.041-.091.092-.091h1.986a.55.55 0 000-1.1H9.273a.092.092 0 01-.091-.092V9.323c0-.052.041-.092.092-.092h2.022a.55.55 0 100-1.1H8.632zm5.065.419a.55.55 0 00-1.06.295l1.283 4.605a.55.55 0 001.058.008l.738-2.535c.025-.088.148-.088.176 0l.77 2.54a.55.55 0 001.058-.02l1.215-4.605a.55.55 0 00-1.063-.281l-.638 2.418c-.024.09-.15.091-.176.003l-.741-2.44a.55.55 0 00-1.055.006l-.711 2.442c-.026.09-.151.088-.176 0l-.678-2.436z" fill="#000" fill-opacity=".5"/><path d="M3.667 0A3.667 3.667 0 000 3.667v14.666A3.667 3.667 0 003.667 22h14.666A3.667 3.667 0 0022 18.333V3.667A3.666 3.666 0 0018.333 0H3.667zm-2.2 3.667a2.2 2.2 0 012.2-2.2h14.666a2.2 2.2 0 012.2 2.2v14.666a2.2 2.2 0 01-2.2 2.2H3.667a2.2 2.2 0 01-2.2-2.2V3.667z" fill="#000" fill-opacity=".5"/></svg>