<svg width="208" height="76" fill="none" xmlns="http://www.w3.org/2000/svg"><g clip-path="url(#clip0_112_3075)" fill="#fff"><path d="M69.78 41.217l6.644 3.751 1.373-3.179-4.515-2.552-3.502 1.98zM0 34.21l4.515 2.541 3.514-1.98-6.655-3.74L0 34.211zm35.605 33.947l-3.84 6.501L35.02 76l2.612-4.41-2.027-3.433zM42.778 0l-2.601 4.411 2.015 3.432 3.851-6.501L42.778 0zM67.28 25.707h7.691l-.45-3.42h-5.214l-2.027 3.42zM3.265 53.714H8.49l2.027-3.421h-7.69l.438 3.421zm48.217 12.012v7.513l3.502-.43v-5.103l-3.502-1.98zM22.813 3.19v5.104l3.502 1.98V2.76l-3.502.429zm34.378 10.296l6.655-3.75-2.14-2.75-4.515 2.551v3.95zM16.09 69.015l4.516-2.552v-3.96l-6.655 3.751 2.14 2.761zM63.992 55.87l3.84 6.501 2.815-2.09-2.612-4.41h-4.043zM7.15 15.719l2.613 4.411h4.053l-3.84-6.501-2.826 2.09z"/><path d="M1.419 44.88l8.817-4.972 6.756 3.828-9.65 16.336 2.623 2.2 1.734-2.938 3.277-5.5.079-.12h7.815v18.82l3.378.617v-9.9l6.756-3.817 9.65 16.346 3.254-1.1L40.852 66l3.908-6.6 16.732 9.439 2.253-2.552-8.806-4.984v-7.645h19.3l.642-3.3H64.747l-3.919-6.6 16.733-9.427-1.126-3.179-8.873 4.94-6.756-3.818 9.66-16.346-2.611-2.2-5.09 8.602h-7.837V3.465l-3.378-.616v9.9l-6.757 3.817L35.098.264l-3.243 1.1 5.09 8.613-3.907 6.6-16.744-9.405-2.252 2.563 8.805 4.972v7.634h-19.3l-.63 3.3H13.05l3.907 6.6L.27 41.712l1.15 3.168zm20.268-11.396l-4.684-7.832h9.256v-9.031l8.04 4.532 4.605-7.832 4.617 7.81 8.017-4.521v9.042h9.268l-4.595 7.766 7.973 4.554-8.063 4.543 4.685 7.832h-9.268V59.4l-8.017-4.52-4.628 7.82-4.628-7.832L26.26 59.4v-9.053h-9.256l4.628-7.832-8.017-4.52 8.073-4.51zm69.645 17.853l2.748-.55V29.568l15.956 21.77h5.551l-3.412-4.654 12.15-18.59v23.243h5.551V23.914h-5.551l-13.603 20.801-15.246-20.8h-5.54l1.396 1.913v25.51zm88.911-2.684v-7.458l12.916-4.158v-3.344l-12.916 4.158V26.587h27.194l.563-2.673h-35.999v2.673h2.702v24.75H208l-.563-2.684h-27.194zm-11.868 0h-25.493l26.056-22.066v-2.673h-33.297l.563 2.673h25.494l-26.057 22.066v2.684h33.297l-.563-2.684zm-4.797-27.775l16.665-5.379v-3.344l-16.665 5.38v3.343zm-73.642 42.23h7.206v-.924h-6.271v-2.607h6.272v-.913h-7.207v4.444zm9.909 0h7.679v-4.4h-7.68v4.4zm.935-3.531h5.81v2.607h-5.81v-2.607zm66.998 3.531h7.207v-.924h-6.272v-2.607h6.272v-.913h-7.207v4.444zm-8.873 0h7.68v-4.4h-7.68v4.4zm.935-3.531h5.799v2.607h-5.743l-.056-2.607zm24.04 3.531h7.68v-4.4h-7.68v4.4zm.935-3.531h5.799v2.607h-5.799v-2.607zm-8.772 0h2.905v3.531h.935v-3.53h2.905v-.914h-6.745v.913zm-51.527.847h-5.81v-1.76h-.935v4.444h.935v-1.77h5.81v1.77h.935v-4.444h-.935v1.76zm11.779 2.684h7.206v-.924h-6.272v-.847h6.272v-.913h-6.272v-.847h6.272v-.913h-7.206v4.444zm20.718-4.444h-6.947v4.4h7.679v-2.64h-.732v-1.76zm-6.013.913h5.079v.847H151v-.847zm5.799 2.607H151v-.847h5.799v.847zm-22.317-3.52h-.946v3.52h-5.799v-3.52h-.935v4.444h7.466v.737h.946v-1.199h-.732v-3.982zm-26.136 4.444h1.07l1.982-3.53h4.031v3.53h.946v-4.444h-5.54l-2.489 4.444zm91.659 0h1.07l.968-1.771h5.011v1.771H208v-4.4h-5.54l-2.455 4.4zm3.018-3.531h4.031v.847h-4.504l.473-.847zm-10.472-.913v4.444h.934v-4.443h-.934zm6.666 0h-1.858l-3.874 2.211 3.874 2.233h1.858l-3.874-2.233 3.874-2.21z"/></g><defs><clipPath id="clip0_112_3075"><path fill="#fff" d="M0 0h208v76H0z"/></clipPath></defs></svg>