<svg width="133" height="138" fill="none" xmlns="http://www.w3.org/2000/svg"><g clip-path="url(#clip0_112_3054)" fill="#fff"><path d="M115.822 23.69a.287.287 0 000-.394c-6.501-7.685-14.601-13.767-23.698-17.797A64.456 64.456 0 0063.266.016a64.65 64.65 0 00-28.32 7.913c-8.742 4.788-16.326 11.537-22.188 19.748-5.863 8.21-9.854 17.67-11.679 27.682a69.77 69.77 0 001.138 30.152c2.574 9.836 7.267 18.95 13.73 26.668 6.464 7.719 14.534 13.843 23.611 17.92a.25.25 0 00.186 0 .263.263 0 00.104-.057.282.282 0 00.07-.097.29.29 0 00.002-.215.28.28 0 00-.146-.155c-8.999-4.048-16.997-10.124-23.403-17.781-6.406-7.656-11.055-16.696-13.603-26.45A69.195 69.195 0 011.65 55.446C3.462 45.52 7.423 36.14 13.238 28c5.815-8.14 13.335-14.83 22.006-19.576A64.116 64.116 0 0163.325.581 63.924 63.924 0 0191.939 6.02c9.021 3.996 17.052 10.027 23.5 17.647a.263.263 0 00.383 0v.024z"/><path d="M63.869 102.921c8.187-.463 9.092-.044 16.063-.118 1.798-3.081 5.892-10.255 7.714-13.416-2.302-.487-3.363-.66-5.832-1.153-.563-2.514-6.09-21.829-10.537-37.772 1.546-1.972 2.643-3.328 4.585-5.781 2.835.887 4.651 1.7 6.593 2.379 2.805 9.904 9.65 34.666 11.04 39.584a1.821 1.821 0 01-.065 1.492c-.492.986-1.75 2.927-4.064 7.272 7.606-.13 8.948-.043 16.608.05 1.841-3.2 5.892-10.243 7.451-13.035-2.296-.487-4.196-.814-6.222-1.233L96.84 44.083c3.057-3.895 6.851-8.542 6.851-8.542l-22.249-7.537a.444.444 0 00-.497.142C79.387 30.13 69.07 43.25 68.957 43.276c-3.404-1.097-20.582-6.958-22.62-7.642a.291.291 0 00-.187-.006.3.3 0 00-.154.11c-.804 1.091-5.395 6.983-9.704 12.098-5.023 5.966-13.246 3.6-15.11.79l-9.836 12.448s2.74 10.73 14.301 4.542c6.431-3.438 14.133-15.505 14.133-15.505l4.795 1.91L30.91 69.086c2.74.653 4.502 2.465 5.437 5.78l5.01 17.954a2.223 2.223 0 01-.305 1.848c-.6.85-1.565 2.287-2.71 4.037-4.836 7.58-7.653 13.817-6.628 13.713 2.745-2.324 9.77-3.476 12.083-3.698 5.724-.53 9.428.783 10.65 1.313 3.747-6.515 5.155-9.128 7.727-13.645-2.925-.617-8.464-1.436-12.21-2.317 2.764-3.328 4.136-5.116 4.694-5.867a1.075 1.075 0 00.18-.944l-9.824-35.128c3.824 1.282 8.858 2.964 13.072 4.314 2.17 7.753 8.937 32.047 10.309 36.978a2.453 2.453 0 01-.144 1.737c-.6 1.233-1.99 3.544-4.381 7.723v.037zm-3.932 34.838a4.302 4.302 0 01-1.757-.482 4.433 4.433 0 01-1.42-1.169 4.365 4.365 0 01-.757-1.52 4.432 4.432 0 01-.124-1.703 4.247 4.247 0 01.492-1.638 4.13 4.13 0 011.09-1.296 4.548 4.548 0 013.524-.9 4.754 4.754 0 012.734 1.073l-.947 1.232a3.512 3.512 0 00-1.978-.832 2.533 2.533 0 00-2.086.561 2.938 2.938 0 00-.899 1.966 3.4 3.4 0 00.426 2.206c.205.311.479.568.798.75.32.182.677.284 1.042.298.52.089 1.055.031 1.546-.166l.174-1.664-1.576-.179.143-1.375 3.309.364-.42 4.018a5.731 5.731 0 01-3.314.456zm7.612.241l-.48-8.449 2.86-.173a3.783 3.783 0 012.397.487c.282.192.514.453.675.76.161.306.246.648.248.997.032.283.007.57-.075.843a2.071 2.071 0 01-.399.74c-.372.41-.857.692-1.39.808v.031c.422.31.785.696 1.073 1.14l1.798 2.416-1.996.117-1.708-2.318a5.953 5.953 0 00-.744-.844.758.758 0 00-.527-.148h-.114l.198 3.476-1.816.117zm1.546-4.856l.99-.056c.946-.061 1.396-.474 1.354-1.232-.042-.758-.564-1.134-1.565-1.073l-.91.05.131 2.311zm8.709 3.827l-1.498-8.326 1.798-.339 1.498 8.326-1.798.339zm6.18-1.387l-2.398-8.098 1.726-.53 2.002 6.705 3.057-.961.414 1.387-4.801 1.497zm8.433-2.959l-3.447-7.685 1.66-.789 2.872 6.373 2.9-1.381.6 1.319-4.585 2.163zm13.767-7.937a3.43 3.43 0 01-2.163.869 1.96 1.96 0 01-.915-.223 2.026 2.026 0 01-.716-.627 2.237 2.237 0 01-.479-1.368 4.359 4.359 0 01.443-1.677 2.928 2.928 0 01-1.846-.98 1.824 1.824 0 01-.305-1.633 3.08 3.08 0 011.132-1.59 2.74 2.74 0 011.715-.678c.254-.003.506.056.735.173.228.117.426.288.577.499.264.351.39.791.354 1.233a5.658 5.658 0 01-.48 1.713l2.26.376a5.49 5.49 0 00-.468-1.553l1.319-.709c.407.785.613 1.663.599 2.552l2.164.382-1.66 1.3-.803-.142a4.238 4.238 0 01-1.463 2.083zm-3.063-4.511c.294-.758.306-1.319 0-1.689a.7.7 0 00-.503-.301.857.857 0 00-.599.197.94.94 0 00-.366.567.798.798 0 00.162.616c.348.361.813.578 1.306.61zm2.398 3.353c.393-.295.679-.716.815-1.196l-2.703-.456a1.649 1.649 0 00.114 1.59c.089.131.208.239.345.315.137.076.29.118.446.123.348-.001.684-.125.953-.352l.03-.024zm11.358-9.165l-7.912-3.34 1.199-1.566 4.058 1.849c.477.195.938.43 1.378.703l-.161-.21-.408-.511a8.033 8.033 0 01-.432-.561l-2.631-3.643 1.103-1.448 4.04 1.744c.186.08.401.185.641.302l.599.29.228.117-.162-.179-.413-.48c-.162-.204-.312-.389-.432-.555l-2.691-3.605 1.073-1.412 5.047 7.112-1.013 1.344-4.358-1.886a9.541 9.541 0 01-1.42-.69c.057.061.109.127.156.197l.389.505c.168.216.306.407.426.58l2.763 3.987-1.067 1.356zm7.36-10.773l-7.192-4.104.881-1.64 7.192 4.105-.881 1.639zm2.997-5.824l-7.684-3.038.659-1.756 5.089-1.4a14.736 14.736 0 011.618-.35 13.11 13.11 0 01-1.234-.432l-4.058-1.602.599-1.59 7.69 2.995-.599 1.596-5.466 1.522c-.24.068-.72.179-1.451.333.356.1.706.22 1.049.357l4.393 1.738-.605 1.627zm3.86-11.691l-8.056-1.738 1.013-4.98 1.403.302-.647 3.18 1.798.389.599-2.804 1.331.283-.6 2.804 2.104.456.665-3.272 1.403.302-1.013 5.078zM133 72.229l-8.235.043v-2.946a4.417 4.417 0 01.467-2.212c.159-.277.389-.504.665-.654.276-.15.588-.218.9-.197.449-.032.893.111 1.245.4.351.288.585.702.655 1.16a2.576 2.576 0 01.599-1.393c.173-.186.383-.332.616-.428a1.7 1.7 0 01.732-.127c1.523 0 2.29 1.14 2.302 3.445l.054 2.909zm-4.855-1.849v-.863a1.884 1.884 0 00-.264-1.103.96.96 0 00-.809-.339c-.659 0-.983.475-.983 1.411v.9l2.056-.006zm3.506 0v-.986a2.339 2.339 0 00-.263-1.233.947.947 0 00-.367-.317.912.912 0 00-.472-.09c-.78 0-1.163.53-1.157 1.572v1.066l2.259-.012zm1.115-7.74l-8.661-1.93-.287-1.774 7.564-4.807.329 2.009-1.432.85.563 3.483 1.619.314.305 1.855zm-3.38-2.465l-.402-2.465-1.798 1.078a12.92 12.92 0 01-.827.45c-.3.148-.468.234-.497.259l.293.037.558.08.599.105 2.074.456zm.995-9.707l-7.792 2.73-.917-2.786a4.085 4.085 0 01-.18-2.465c.11-.291.275-.557.485-.783a2.3 2.3 0 01.742-.53 2.242 2.242 0 011.77-.024c.484.259.877.666 1.127 1.165a4.8 4.8 0 01.851-1.405l1.798-2.466.599 1.972-1.714 2.312a4.985 4.985 0 00-.599.96.82.82 0 000 .562l.036.11 3.206-1.133.588 1.78zm-4.963-.234l-.324-.968c-.299-.924-.815-1.233-1.528-1.005-.713.228-.917.863-.599 1.85l.299.893 2.152-.77z"/></g><defs><clipPath id="clip0_112_3054"><path fill="#fff" d="M0 0h133v138H0z"/></clipPath></defs></svg>