<svg width="92" height="21" fill="none" xmlns="http://www.w3.org/2000/svg"><path fill-rule="evenodd" clip-rule="evenodd" d="M28.797 6.046h-.56V5h-3.06v1.049h-.564L24.61 4.54h.35c.183-.207.33-.485.437-.833a4.95 4.95 0 00.204-1.147l.093-1.826h2.552V4.54h.557l-.006 1.506zM25.6 4.54h2.08V1.197h-1.445l-.06 1.254c-.027.49-.09.908-.196 1.254a2.92 2.92 0 01-.38.835h.001zm7.08-1.535c0 .418-.07.783-.21 1.094-.14.312-.34.55-.598.714a1.64 1.64 0 01-.902.246 1.63 1.63 0 01-.894-.248c-.26-.165-.46-.4-.605-.706a2.533 2.533 0 01-.22-1.062v-.308c0-.41.07-.772.213-1.087a1.63 1.63 0 01.605-.722c.26-.167.56-.25.895-.25.342 0 .643.082.904.247.26.165.461.405.602.718.14.314.21.678.21 1.094v.27zm-.559-.276c0-.505-.1-.894-.305-1.164-.203-.27-.487-.406-.852-.406a.995.995 0 00-.84.406c-.204.27-.309.646-.314 1.126v.314c0 .49.103.875.31 1.156.205.28.49.42.85.42.363 0 .644-.132.844-.397.2-.265.301-.644.307-1.138v-.317zm4.541.917c-.053.452-.22.8-.5 1.045-.28.245-.652.368-1.117.368-.504 0-.908-.181-1.21-.542-.305-.362-.457-.845-.457-1.45v-.41c0-.397.07-.746.212-1.047.142-.3.343-.531.602-.693.26-.16.561-.241.903-.241.453 0 .816.126 1.09.38.273.252.432.602.477 1.05h-.565c-.05-.34-.155-.586-.318-.739-.163-.152-.39-.228-.684-.228-.36 0-.64.132-.845.398-.205.266-.307.644-.307 1.134v.413c0 .463.097.831.29 1.104.194.274.464.41.812.41.312 0 .552-.07.72-.212.166-.141.277-.388.332-.74h.565zm3.63-2.449h-1.37V5h-.56V1.197h-1.369V.734h3.3v.463zM42.39 3.21l.981-2.476h.653l-1.508 3.554c-.102.227-.197.387-.285.482a.887.887 0 01-.309.217c-.118.05-.266.075-.443.075a.998.998 0 01-.296-.027l.017-.445.267.012c.205 0 .357-.1.457-.296l.073-.153.111-.26L40.655.734h.63L42.39 3.21zM47.954 5h-.565V1.197h-2.104V5h-.562V.734h3.231V5zm4.3 0h-.564V3.028h-2.15V5h-.563V.734h.562v1.834h2.15V.734h.566V5zm4.281-1.995c0 .418-.07.783-.21 1.094-.14.312-.34.55-.598.714a1.64 1.64 0 01-.903.246 1.63 1.63 0 01-.893-.248c-.26-.165-.462-.4-.605-.706a2.533 2.533 0 01-.22-1.062v-.308c0-.41.07-.772.212-1.087a1.63 1.63 0 01.605-.722c.261-.167.56-.25.895-.25.342 0 .643.082.904.247.261.165.462.405.602.718.14.314.211.678.211 1.094v.27zm-.56-.276c0-.505-.1-.894-.304-1.164-.203-.27-.487-.406-.853-.406-.355 0-.635.135-.839.406-.204.27-.309.646-.315 1.126v.314c0 .49.103.875.31 1.156.205.28.49.42.85.42.364 0 .645-.132.844-.397.2-.265.302-.644.308-1.138v-.317zM58.866 5V.734h1.394c.463 0 .81.096 1.044.287.234.192.35.475.35.85a.86.86 0 01-.17.529c-.12.158-.279.281-.462.356a.99.99 0 01.546.368c.134.18.2.396.2.646 0 .382-.123.683-.37.902-.249.219-.6.328-1.053.328h-1.48.001zm.562-1.995V4.54h.93c.26 0 .467-.068.62-.204.15-.135.225-.322.225-.56 0-.514-.28-.771-.838-.771h-.937zm0-.451h.85c.246 0 .442-.062.59-.185a.618.618 0 00.221-.5c0-.235-.068-.406-.205-.512-.137-.107-.345-.16-.624-.16h-.832v1.357z" fill="#fff"/><path d="M31.023 12a3.079 3.079 0 00-.371-.771 2.383 2.383 0 00-.541-.588 2.272 2.272 0 00-.708-.371 2.82 2.82 0 00-.869-.128 2.59 2.59 0 00-1.41.4c-.424.268-.76.661-1.01 1.181s-.375 1.158-.375 1.913c0 .756.126 1.394.379 1.914s.595.913 1.027 1.18c.432.267.918.4 1.457.4.5 0 .94-.106 1.321-.319.384-.216.682-.52.895-.912.216-.395.324-.86.324-1.393l.324.068H28.84v-.938h3.324v.938c0 .719-.154 1.344-.46 1.875a3.18 3.18 0 01-1.262 1.236c-.534.29-1.148.434-1.84.434-.774 0-1.452-.181-2.038-.545-.582-.364-1.037-.88-1.363-1.551-.324-.67-.486-1.466-.486-2.387 0-.69.092-1.31.277-1.862a4.126 4.126 0 01.793-1.415c.34-.389.744-.687 1.21-.895a3.74 3.74 0 011.538-.31c.46 0 .89.069 1.287.208a3.453 3.453 0 011.858 1.483c.21.347.355.732.435 1.155h-1.091zm5.475 6.136c-.591 0-1.11-.14-1.556-.421a2.866 2.866 0 01-1.04-1.18c-.247-.507-.37-1.098-.37-1.774 0-.681.123-1.277.37-1.785a2.86 2.86 0 011.04-1.185c.446-.281.965-.422 1.556-.422.59 0 1.108.14 1.55.422a2.82 2.82 0 011.04 1.185c.25.508.375 1.103.375 1.785 0 .677-.125 1.267-.375 1.773-.247.506-.593.9-1.04 1.18-.443.282-.96.422-1.55.422zm0-.903c.448 0 .818-.115 1.108-.345.29-.23.504-.533.643-.908.14-.375.209-.781.209-1.219 0-.437-.07-.845-.21-1.223a2.061 2.061 0 00-.642-.916c-.29-.233-.66-.35-1.108-.35-.45 0-.819.117-1.108.35a2.06 2.06 0 00-.644.916 3.51 3.51 0 00-.209 1.223c0 .438.07.844.21 1.22.138.374.353.677.643.907.29.23.659.345 1.108.345zm7.16.903c-.591 0-1.11-.14-1.556-.421a2.866 2.866 0 01-1.04-1.18c-.247-.507-.37-1.098-.37-1.774 0-.681.123-1.277.37-1.785a2.86 2.86 0 011.04-1.185c.446-.281.965-.422 1.556-.422.59 0 1.108.14 1.55.422a2.81 2.81 0 011.04 1.185c.25.508.376 1.103.376 1.785 0 .677-.125 1.267-.375 1.773-.248.506-.594.9-1.04 1.18-.443.282-.96.422-1.551.422zm0-.903c.448 0 .818-.115 1.108-.345.29-.23.504-.533.643-.908.14-.375.209-.781.209-1.219 0-.437-.07-.845-.209-1.223a2.06 2.06 0 00-.643-.916c-.29-.233-.66-.35-1.108-.35-.45 0-.819.117-1.108.35-.29.233-.505.539-.644.916a3.51 3.51 0 00-.209 1.223c0 .438.07.844.21 1.22.139.374.353.677.643.907.29.23.659.345 1.108.345zm7.143 3.358c-.486 0-.904-.063-1.253-.188a2.659 2.659 0 01-.874-.485 2.655 2.655 0 01-.55-.64l.802-.562c.09.12.206.256.345.409.14.156.33.291.571.405.244.116.564.174.959.174.528 0 .964-.127 1.308-.383.344-.256.516-.656.516-1.202v-1.33h-.086c-.073.12-.179.268-.315.444a1.788 1.788 0 01-.58.464c-.25.134-.587.2-1.014.2a2.731 2.731 0 01-1.423-.374 2.631 2.631 0 01-.993-1.091c-.241-.477-.362-1.057-.362-1.739 0-.67.118-1.254.354-1.751.235-.5.563-.887.984-1.16.42-.275.906-.413 1.457-.413.427 0 .765.071 1.015.213.252.14.446.299.58.478.136.176.24.32.315.434h.102v-1.04h.971v6.733c0 .563-.128 1.02-.383 1.373a2.184 2.184 0 01-1.023.78 3.86 3.86 0 01-1.423.25zm-.034-3.597c.403 0 .744-.092 1.022-.277.279-.184.49-.45.635-.796.145-.347.218-.762.218-1.245a3.39 3.39 0 00-.213-1.248 1.874 1.874 0 00-.631-.849c-.279-.204-.622-.306-1.031-.306-.426 0-.782.108-1.066.324a1.973 1.973 0 00-.635.869 3.36 3.36 0 00-.208 1.21c0 .455.07.857.213 1.206.145.347.358.62.639.818.284.196.636.294 1.057.294zm5.71-7.721V18H55.47V9.273h1.006zm4.586 8.863c-.63 0-1.175-.139-1.632-.417a2.803 2.803 0 01-1.052-1.176c-.245-.506-.367-1.094-.367-1.765 0-.67.122-1.261.367-1.772a2.89 2.89 0 011.03-1.202c.444-.29.961-.435 1.552-.435.34 0 .678.057 1.01.17.332.114.635.3.908.555.272.253.49.588.652 1.005.162.418.242.932.242 1.543v.426h-5.045v-.87h4.023c0-.369-.074-.698-.222-.988a1.671 1.671 0 00-.622-.686 1.743 1.743 0 00-.946-.251c-.4 0-.747.1-1.04.298a1.96 1.96 0 00-.669.767 2.254 2.254 0 00-.234 1.014v.58c0 .494.085.913.255 1.257.174.34.414.6.72.78a2.11 2.11 0 001.07.264 2.2 2.2 0 00.716-.11c.216-.078.402-.191.558-.342a1.55 1.55 0 00.363-.57l.971.272c-.102.33-.274.62-.515.87-.242.246-.54.44-.895.579a3.319 3.319 0 01-1.198.204zM68.815 18V9.273h2.948c.685 0 1.245.123 1.68.37.437.245.76.576.971.993.21.418.315.884.315 1.398 0 .514-.105.982-.315 1.402-.207.42-.528.756-.963 1.006-.435.247-.991.37-1.67.37h-2.114v-.937h2.08c.468 0 .845-.081 1.129-.243.284-.162.49-.38.618-.656a2.19 2.19 0 00.196-.942c0-.35-.066-.662-.196-.937a1.398 1.398 0 00-.623-.648c-.286-.16-.667-.239-1.142-.239h-1.858V18h-1.056zM77.3 9.273V18h-1.005V9.273H77.3zm3.768 8.88a2.66 2.66 0 01-1.129-.234 1.939 1.939 0 01-.805-.686c-.2-.301-.299-.665-.299-1.091 0-.375.074-.679.222-.912.148-.236.345-.42.592-.554a3.12 3.12 0 01.818-.298 10.1 10.1 0 01.908-.162c.398-.051.72-.09.967-.115.25-.029.432-.075.546-.14.116-.066.175-.18.175-.342v-.034c0-.42-.115-.747-.346-.98-.227-.233-.572-.35-1.035-.35-.48 0-.857.106-1.13.316-.272.21-.464.435-.575.673l-.954-.34c.17-.398.397-.708.682-.93.287-.224.599-.38.937-.468a3.89 3.89 0 011.006-.137 4 4 0 01.724.077c.276.048.541.15.797.303.259.153.473.384.644.694.17.31.255.725.255 1.245V18h-1.005v-.886h-.052a1.77 1.77 0 01-.34.456c-.16.162-.371.3-.635.413-.265.114-.587.17-.968.17zm.154-.903c.397 0 .733-.078 1.005-.234a1.595 1.595 0 00.836-1.385v-.92c-.043.05-.137.097-.282.14-.142.04-.306.075-.494.106a22.444 22.444 0 01-.963.128c-.261.034-.506.09-.733.166a1.263 1.263 0 00-.546.337c-.136.148-.204.35-.204.605 0 .35.13.614.388.793.261.176.592.264.993.264zm5.095 3.204a2.203 2.203 0 01-.733-.119l.256-.886c.244.062.46.085.648.068a.776.776 0 00.498-.251c.148-.148.283-.388.405-.72l.188-.512-2.42-6.58h1.09l1.807 5.216h.068l1.807-5.216h1.09l-2.778 7.5c-.125.339-.28.618-.464.84-.185.224-.4.39-.644.499a1.983 1.983 0 01-.818.162zM0 18.632V1.37C0 .768.35.247.856 0l9.985 9.998L.852 20A1.522 1.522 0 010 18.632zm14.009-5.462L3.09 19.482l8.61-8.622 2.308 2.31h.001zm3.394-4.38a1.522 1.522 0 01.016 2.408l-2.32 1.341L12.563 10l2.536-2.54 2.305 1.332-.001-.002zM3.097.52l10.91 6.308-2.305 2.308L3.097.521V.52z" fill="#fff"/></svg>